<svg fill="none" xmlns="http://www.w3.org/2000/svg" viewBox="0 0 109 32"><g clip-path="url(#clip0_1433_57801)"><path d="M8.86438 0.777344H2.8049L0.148438 31.0757H13.5352L14.0848 25.4201H6.20792L8.86438 0.777344Z" fill="#171717"></path><path d="M71.9032 25.4201L74.5597 0.777344H68.5002L65.8438 31.0757H79.1398L79.781 25.4201H71.9032Z" fill="#171717"></path><path d="M45.2306 0.777344L39.391 29.8885L39.4176 0.777344H33.4103L33.3828 31.0757H45.1601L51.2379 0.777344H45.2306Z" fill="#171717"></path><path d="M56.6423 18.1781H63.3604L63.8394 12.5226H57.1378L57.6719 6.43377H66.1881L66.6672 0.777344H58.1674H52.5119L49.8555 31.0757H52.4267H64.0987L64.5787 25.4192H56.0065L56.6423 18.1781Z" fill="#171717"></path><path d="M23.519 0.777344H17.8635L15.207 31.0757H17.7783H29.4502L29.9302 25.4192H21.359L21.9938 18.1781H28.7119L29.191 12.5226H22.4894L23.0234 6.43377H31.5397L32.0188 0.777344H23.519Z" fill="#171717"></path><path d="M102.74 0.777344L99.375 31.0747H105.382L108.747 0.777344H102.74Z" fill="#e96269"></path><path d="M99.2266 31.0747L99.2431 31.2231L99.2595 31.0747H99.2266Z" fill="#e96269"></path><path d="M93.3689 31.0757H99.3762L96.0126 0.777344H90.0044L92.1131 19.7646H87.8929L90.0007 0.777344H83.9934L80.6289 31.0757H86.6362L87.2646 25.4201H92.7414L93.3689 31.0757Z" fill="#e96269"></path></g><defs><clipPath id="clip0_1433_57801"><rect width="108.484" height="30.4458" fill="#e96269" transform="translate(0.148438 0.777344)"></rect></clipPath></defs></svg>